<svg width="54" height="53" viewBox="0 0 54 53" fill="none" xmlns="http://www.w3.org/2000/svg">
<path fill-rule="evenodd" clip-rule="evenodd" d="M0.121773 20.2774C0.121773 25.8325 4.2342 30.4123 9.53632 31.049C10.0486 31.1105 10.4595 31.5351 10.4595 32.0588V44.8227C10.4595 45.3585 10.8872 45.7928 11.4148 45.7928H15.2659C15.7934 45.7928 16.2212 46.2271 16.2212 46.7628V51.1263C16.2212 51.9733 17.2152 52.4135 17.8265 51.8372L23.962 46.052C24.1387 45.8854 24.3709 45.7928 24.612 45.7928H43.9634C44.491 45.7928 44.9187 45.3585 44.9187 44.8227V31.8097C44.9187 31.3339 45.2603 30.9329 45.7157 30.821C50.3994 29.671 53.8782 25.3867 53.8782 20.2774C53.8782 14.2866 49.0956 9.43016 43.1959 9.43016C42.5619 9.43016 41.9407 9.48625 41.337 9.59381C40.8817 9.67494 40.4199 9.4511 40.206 9.03491C37.7223 4.20139 32.7405 0.901672 26.9998 0.901672C21.259 0.901672 16.2773 4.20136 13.7935 9.03484C13.5797 9.45101 13.1179 9.67485 12.6626 9.59374C12.059 9.48623 11.438 9.43016 10.8041 9.43016C4.90442 9.43016 0.121773 14.2866 0.121773 20.2774ZM28.2806 32.8996C28.2806 32.1927 27.6774 31.6197 26.9333 31.6197L16.8287 31.6197C16.0846 31.6197 15.4814 32.1927 15.4814 32.8996C15.4814 33.6065 16.0846 34.1795 16.8287 34.1795L26.9333 34.1795C27.6774 34.1795 28.2806 33.6065 28.2806 32.8996ZM37.2252 36.7394C37.94 36.7394 38.5195 37.3124 38.5195 38.0193C38.5195 38.7262 37.94 39.2992 37.2252 39.2992H16.7754C16.0605 39.2992 15.481 38.7262 15.481 38.0193C15.481 37.3124 16.0605 36.7394 16.7754 36.7394H37.2252Z" fill="#3C39FF"/>
</svg>
