<svg width="26" height="24" viewBox="0 0 26 24" fill="none" xmlns="http://www.w3.org/2000/svg">
<path fill-rule="evenodd" clip-rule="evenodd" d="M1.99995 9.04199C1.99995 10.634 3.17446 11.908 4.63184 12.083C5.73154 12.2151 6.71706 13.1014 6.81607 14.3351H4.79652C4.78969 14.3351 4.78291 14.3352 4.77613 14.3354C4.70461 14.1917 4.56057 14.0888 4.39341 14.0687C1.91909 13.7716 -4.57764e-05 11.6344 -4.57764e-05 9.04199C-4.57764e-05 6.24631 2.23186 3.97996 4.98505 3.97996C5.28087 3.97996 5.57067 4.00613 5.85233 4.0563C6.06482 4.09415 6.28032 3.98969 6.38012 3.79548C7.53919 1.53986 9.86402 0 12.543 0C15.222 0 17.5469 1.53987 18.7059 3.79551C18.8057 3.98973 19.0213 4.09419 19.2337 4.05633C19.5155 4.00614 19.8053 3.97996 20.1012 3.97996C22.8544 3.97996 25.0863 6.24631 25.0863 9.04199C25.0863 11.4263 23.4628 13.4257 21.2771 13.9624C21.0646 14.0146 20.9052 14.2017 20.9052 14.4237V20.4965C20.9052 20.7465 20.7056 20.9492 20.4594 20.9492H11.4287C11.3162 20.9492 11.2079 20.9924 11.1254 21.0702L9.513 22.5905L9.3479 22.7461L8.61397 23.4382L8.26216 23.7699C7.97691 24.0389 7.513 23.8334 7.513 23.4382V22.9754V21.9457V21.7274V21.4019C7.513 21.1519 7.3134 20.9492 7.06719 20.9492H5.27005C5.02383 20.9492 4.82424 20.7465 4.82424 20.4965V17.9189H6.82424V18.9492H7.06719C7.97968 18.9492 8.7551 19.4423 9.17556 20.1598L9.75333 19.615C10.2039 19.1901 10.802 18.9492 11.4287 18.9492H18.9052V14.4237C18.9052 13.2092 19.7649 12.2743 20.8002 12.0201C22.0935 11.7025 23.0863 10.5035 23.0863 9.04199C23.0863 7.32189 21.7211 5.97996 20.1012 5.97996C19.9235 5.97996 19.751 5.99566 19.5846 6.02532C18.5178 6.21538 17.433 5.6941 16.9271 4.7096C16.0917 3.08385 14.4319 2 12.543 2C10.6542 2 8.9944 3.08384 8.159 4.70958C7.65312 5.69405 6.56828 6.21532 5.50159 6.0253C5.33514 5.99565 5.1627 5.97996 4.98505 5.97996C3.36519 5.97996 1.99995 7.32189 1.99995 9.04199ZM6.82424 16.7243H4.82424V15.5297H6.82424V16.7243Z" fill="#FF6339"/>
</svg>
