<svg width="465" height="151" viewBox="0 0 465 151" fill="none" xmlns="http://www.w3.org/2000/svg">
<path d="M12.4074 57.1469C12.4074 67.2086 19.6936 75.2607 28.7348 76.3667C35.557 77.2012 41.6708 82.8032 42.2851 90.6002H29.7564C29.7141 90.6002 29.672 90.6008 29.63 90.6021C29.1863 89.6942 28.2926 89.0437 27.2556 88.9169C11.9057 87.0391 0 73.5314 0 57.1469C0 39.4777 13.846 25.154 30.926 25.154C32.7612 25.154 34.559 25.3194 36.3064 25.6365C37.6246 25.8757 38.9614 25.2155 39.5806 23.9881C46.7711 9.73215 61.1936 0 77.8134 0C94.4332 0 108.856 9.73224 116.046 23.9883C116.665 25.2158 118.002 25.876 119.321 25.6367C121.068 25.3195 122.866 25.154 124.702 25.154C141.782 25.154 155.628 39.4777 155.628 57.1469C155.628 72.2165 145.557 84.8525 131.997 88.2446C130.679 88.5744 129.69 89.7571 129.69 91.1605V129.541C129.69 131.122 128.451 132.402 126.924 132.402H70.9007C70.2026 132.402 69.5304 132.676 69.0188 133.167L51.2562 150.23C49.4866 151.93 46.6086 150.631 46.6086 148.133V135.264C46.6086 133.683 45.3704 132.402 43.843 132.402H32.694C31.1666 132.402 29.9284 131.122 29.9284 129.541V113.25H42.3358V119.762H43.843C49.5038 119.762 54.3142 122.879 56.9227 127.413L60.507 123.97C63.3024 121.285 67.0128 119.762 70.9007 119.762H117.282V91.1605C117.282 83.4842 122.616 77.5757 129.038 75.9689C137.062 73.9618 143.221 66.384 143.221 57.1469C143.221 46.2756 134.751 37.7944 124.702 37.7944C123.6 37.7944 122.53 37.8936 121.497 38.0811C114.879 39.2823 108.149 35.9877 105.011 29.7655C99.828 19.4904 89.5313 12.6403 77.8134 12.6403C66.0955 12.6403 55.7988 19.4904 50.6162 29.7653C47.4779 35.9873 40.7479 39.2819 34.1304 38.0809C33.0978 37.8936 32.0281 37.7944 30.926 37.7944C20.8769 37.7944 12.4074 46.2756 12.4074 57.1469Z" fill="#FF6339"/>
<path d="M42.3358 105.7H29.9284V98.1502H42.3358V105.7Z" fill="#FF6339"/>
<path d="M180.79 132.722C176.324 132.722 172.328 131.812 168.805 129.992C165.331 128.172 162.601 125.669 160.616 122.483C158.631 119.247 157.638 115.556 157.638 111.41C157.638 107.264 158.631 103.599 160.616 100.413C162.601 97.228 165.331 94.7505 168.805 92.9808C172.328 91.1606 176.324 90.2505 180.79 90.2505C185.356 90.2505 189.302 91.2365 192.627 93.2084C195.952 95.1803 198.309 97.9611 199.699 101.551L188.756 107.239C187.813 105.318 186.646 103.927 185.257 103.068C183.867 102.158 182.354 101.703 180.716 101.703C179.078 101.703 177.589 102.082 176.249 102.84C174.909 103.599 173.842 104.711 173.048 106.177C172.304 107.593 171.931 109.337 171.931 111.41C171.931 113.534 172.304 115.329 173.048 116.795C173.842 118.262 174.909 119.374 176.249 120.132C177.589 120.891 179.078 121.27 180.716 121.27C182.354 121.27 183.867 120.84 185.257 119.981C186.646 119.07 187.813 117.655 188.756 115.733L199.699 121.422C198.309 125.011 195.952 127.792 192.627 129.764C189.302 131.736 185.356 132.722 180.79 132.722Z" fill="#FF6339"/>
<path d="M227.071 132.722C222.654 132.722 218.733 131.812 215.309 129.992C211.884 128.172 209.179 125.669 207.194 122.483C205.259 119.247 204.291 115.556 204.291 111.41C204.291 107.264 205.259 103.599 207.194 100.413C209.179 97.228 211.884 94.7505 215.309 92.9808C218.733 91.1606 222.654 90.2505 227.071 90.2505C231.488 90.2505 235.408 91.1606 238.833 92.9808C242.307 94.7505 245.012 97.228 246.947 100.413C248.883 103.599 249.851 107.264 249.851 111.41C249.851 115.556 248.883 119.247 246.947 122.483C245.012 125.669 242.307 128.172 238.833 129.992C235.408 131.812 231.488 132.722 227.071 132.722ZM227.071 121.27C228.708 121.27 230.148 120.891 231.388 120.132C232.679 119.374 233.696 118.262 234.441 116.795C235.185 115.278 235.557 113.483 235.557 111.41C235.557 109.337 235.185 107.593 234.441 106.177C233.696 104.711 232.679 103.599 231.388 102.84C230.148 102.082 228.708 101.703 227.071 101.703C225.483 101.703 224.043 102.082 222.753 102.84C221.512 103.599 220.495 104.711 219.701 106.177C218.956 107.593 218.584 109.337 218.584 111.41C218.584 113.483 218.956 115.278 219.701 116.795C220.495 118.262 221.512 119.374 222.753 120.132C224.043 120.891 225.483 121.27 227.071 121.27Z" fill="#FF6339"/>
<path d="M278.885 132.722C274.468 132.722 270.547 131.812 267.123 129.992C263.698 128.172 260.994 125.669 259.008 122.483C257.073 119.247 256.105 115.556 256.105 111.41C256.105 107.264 257.073 103.599 259.008 100.413C260.994 97.228 263.698 94.7505 267.123 92.9808C270.547 91.1606 274.468 90.2505 278.885 90.2505C283.302 90.2505 287.223 91.1606 290.647 92.9808C294.121 94.7505 296.826 97.228 298.762 100.413C300.697 103.599 301.665 107.264 301.665 111.41C301.665 115.556 300.697 119.247 298.762 122.483C296.826 125.669 294.121 128.172 290.647 129.992C287.223 131.812 283.302 132.722 278.885 132.722ZM278.885 121.27C280.523 121.27 281.962 120.891 283.203 120.132C284.493 119.374 285.511 118.262 286.255 116.795C287 115.278 287.372 113.483 287.372 111.41C287.372 109.337 287 107.593 286.255 106.177C285.511 104.711 284.493 103.599 283.203 102.84C281.962 102.082 280.523 101.703 278.885 101.703C277.297 101.703 275.858 102.082 274.567 102.84C273.327 103.599 272.309 104.711 271.515 106.177C270.771 107.593 270.398 109.337 270.398 111.41C270.398 113.483 270.771 115.278 271.515 116.795C272.309 118.262 273.327 119.374 274.567 120.132C275.858 120.891 277.297 121.27 278.885 121.27Z" fill="#FF6339"/>
<path d="M322.213 124.455L322.585 107.239L339.037 90.9331H355.787L337.548 110.121L330.327 116.037L322.213 124.455ZM310.451 132.039V75.7647H324.595V132.039H310.451ZM340.079 132.039L327.722 116.264L336.506 105.191L357.202 132.039H340.079Z" fill="#FF6339"/>
<path d="M363.719 132.039V90.9331H377.863V132.039H363.719ZM370.791 86.3826C368.211 86.3826 366.126 85.6494 364.538 84.1832C362.95 82.7169 362.156 80.8967 362.156 78.7225C362.156 76.5484 362.95 74.7282 364.538 73.2619C366.126 71.7956 368.211 71.0625 370.791 71.0625C373.372 71.0625 375.456 71.7703 377.045 73.1861C378.633 74.5512 379.427 76.3209 379.427 78.495C379.427 80.7703 378.633 82.6663 377.045 84.1832C375.506 85.6494 373.422 86.3826 370.791 86.3826Z" fill="#FF6339"/>
<path d="M390.927 132.039V91.3881C390.927 86.4331 392.366 82.4893 395.244 79.5568C398.173 76.5737 402.341 75.0821 407.751 75.0821C409.488 75.0821 411.2 75.2591 412.888 75.613C414.575 75.9669 415.99 76.4978 417.131 77.2057L413.632 87.3685C413.037 87.0146 412.367 86.7365 411.622 86.5342C410.878 86.2814 410.133 86.155 409.389 86.155C407.9 86.155 406.734 86.6101 405.89 87.5202C405.096 88.3797 404.699 89.7196 404.699 91.5398V94.4977L405.071 100.489V132.039H390.927ZM385.046 103.22V92.4499H414.302V103.22H385.046Z" fill="#FF6339"/>
<path d="M429.416 147.435C427.282 147.435 425.123 147.081 422.939 146.374C420.805 145.716 419.068 144.832 417.728 143.719L422.641 133.632C423.485 134.391 424.453 134.972 425.544 135.377C426.686 135.832 427.803 136.059 428.895 136.059C430.433 136.059 431.649 135.705 432.542 134.997C433.436 134.289 434.205 133.177 434.85 131.66L436.711 126.882L437.828 125.441L451.526 90.9331H465L447.58 133.708C446.19 137.247 444.577 140.003 442.741 141.975C440.954 143.997 438.944 145.413 436.711 146.222C434.527 147.031 432.096 147.435 429.416 147.435ZM434.924 133.784L417.132 90.9331H431.649L444.751 124.152L434.924 133.784Z" fill="#FF6339"/>
</svg>
