<svg width="48" height="48" viewBox="0 0 48 48" fill="none" xmlns="http://www.w3.org/2000/svg">
<path d="M23 43.5C11.7 43.5 2.5 34.3 2.5 23C2.5 11.7 11.7 2.5 23 2.5C34.3 2.5 43.5 11.7 43.5 23C43.5 34.3 34.3 43.5 23 43.5ZM23 5.5C13.34 5.5 5.5 13.36 5.5 23C5.5 32.64 13.34 40.5 23 40.5C32.66 40.5 40.5 32.64 40.5 23C40.5 13.36 32.66 5.5 23 5.5Z" fill="#353535"/>
<path d="M43.9999 45.4999C43.6199 45.4999 43.2399 45.3599 42.9399 45.0599L38.9399 41.0599C38.3599 40.4799 38.3599 39.5199 38.9399 38.9399C39.5199 38.3599 40.4799 38.3599 41.0599 38.9399L45.0599 42.9399C45.6399 43.5199 45.6399 44.4799 45.0599 45.0599C44.7599 45.3599 44.3799 45.4999 43.9999 45.4999Z" fill="#353535"/>
</svg>
